SplineFontDB: 3.2
FontName: ExploreMetaMono
FullName: Explore Meta Mono
FamilyName: ExploreMetaMono
Weight: Book
Copyright: Copyright (c) 2025, Bastien
Version: 001.000
ItalicAngle: 0
UnderlinePosition: -100
UnderlineWidth: 50
Ascent: 800
Descent: 224
InvalidEm: 0
sfntRevision: 0x00010000
LayerCount: 2
Layer: 0 1 "Arri+AOgA-re" 1
Layer: 1 1 "Avant" 0
XUID: [1021 760 1580941675 2874679]
StyleMap: 0x0000
FSType: 0
OS2Version: 4
OS2_WeightWidthSlopeOnly: 0
OS2_UseTypoMetrics: 1
CreationTime: 1751797409
ModificationTime: 1753689919
PfmFamily: 17
TTFWeight: 400
TTFWidth: 5
LineGap: 92
VLineGap: 0
Panose: 2 0 5 3 0 0 0 0 0 0
OS2TypoAscent: 800
OS2TypoAOffset: 0
OS2TypoDescent: -224
OS2TypoDOffset: 0
OS2TypoLinegap: 92
OS2WinAscent: 800
OS2WinAOffset: 0
OS2WinDescent: 219
OS2WinDOffset: 0
HheadAscent: 800
HheadAOffset: 0
HheadDescent: -219
HheadDOffset: 0
OS2SubXSize: 665
OS2SubYSize: 716
OS2SubXOff: 0
OS2SubYOff: 143
OS2SupXSize: 665
OS2SupYSize: 716
OS2SupXOff: 0
OS2SupYOff: 491
OS2StrikeYSize: 51
OS2StrikeYPos: 265
OS2CapHeight: 683
OS2XHeight: 507
OS2Vendor: 'PfEd'
OS2CodePages: 00000001.00000000
OS2UnicodeRanges: 00000001.00000000.00000000.00000000
DEI: 91125
ShortTable: cvt  2
  34
  648
EndShort
ShortTable: maxp 16
  1
  0
  98
  85
  5
  0
  0
  2
  0
  1
  1
  0
  64
  46
  0
  0
EndShort
LangName: 1033 "" "" "Regular" "FontForge : Explore Meta Mono : 6-7-2025" "" "Version 001.000"
GaspTable: 1 65535 2 0
Encoding: UnicodeBmp
UnicodeInterp: none
NameList: AGL For New Fonts
DisplaySize: -72
AntiAlias: 1
FitToEm: 0
WinInfo: 24 12 10
BeginChars: 65539 98

StartChar: .notdef
Encoding: 65536 -1 0
Width: 374
GlyphClass: 1
Flags: W
LayerCount: 2
Fore
SplineSet
34 0 m 1,0,-1
 34 682 l 1,1,-1
 306 682 l 1,2,-1
 306 0 l 1,3,-1
 34 0 l 1,0,-1
68 34 m 1,4,-1
 272 34 l 1,5,-1
 272 648 l 1,6,-1
 68 648 l 1,7,-1
 68 34 l 1,4,-1
EndSplineSet
EndChar

StartChar: exclam
Encoding: 33 33 4
Width: 586
GlyphClass: 1
Flags: W
LayerCount: 2
Fore
SplineSet
343 69 m 132,-1,1
 343 49 343 49 328 34 c 132,-1,2
 313 19 313 19 293 19 c 132,-1,3
 273 19 273 19 258 34 c 4,4,5
 244 48 244 48 244 69 c 132,-1,6
 244 90 244 90 258 104 c 132,-1,7
 272 118 272 118 293 118 c 132,-1,8
 314 118 314 118 328 104 c 4,9,0
 343 89 343 89 343 69 c 132,-1,1
254 702 m 5,10,-1
 333 702 l 5,11,-1
 325 244 l 5,12,-1
 261 244 l 5,13,-1
 254 702 l 5,10,-1
EndSplineSet
EndChar

StartChar: quotedbl
Encoding: 34 34 5
Width: 571
GlyphClass: 1
Flags: W
LayerCount: 2
Fore
SplineSet
449 584 m 1,0,-1
 372 584 l 1,1,-1
 372 774 l 1,2,-1
 449 774 l 1,3,-1
 449 584 l 1,0,-1
122 774 m 5,4,-1
 199 774 l 5,5,-1
 199 584 l 5,6,-1
 122 584 l 5,7,-1
 122 774 l 5,4,-1
EndSplineSet
EndChar

StartChar: numbersign
Encoding: 35 35 6
Width: 586
GlyphClass: 1
Flags: W
LayerCount: 2
Fore
SplineSet
86 191 m 1,0,-1
 86 254 l 1,1,-1
 130 254 l 1,2,-1
 164 445 l 1,3,-1
 86 445 l 1,4,-1
 86 507 l 1,5,-1
 174 507 l 1,6,-1
 205 683 l 1,7,-1
 276 683 l 1,8,-1
 245 507 l 1,9,-1
 399 507 l 1,10,-1
 430 683 l 1,11,-1
 500 683 l 1,12,-1
 469 507 l 1,13,-1
 500 507 l 1,14,-1
 500 445 l 1,15,-1
 459 445 l 1,16,-1
 425 254 l 1,17,-1
 500 254 l 1,18,-1
 500 191 l 1,19,-1
 414 191 l 1,20,-1
 381 0 l 1,21,-1
 310 0 l 1,22,-1
 344 191 l 1,23,-1
 190 191 l 1,24,-1
 157 0 l 1,25,-1
 86 0 l 1,26,-1
 119 191 l 1,27,-1
 86 191 l 1,0,-1
201 254 m 1,28,-1
 355 254 l 1,29,-1
 388 445 l 1,30,-1
 235 445 l 1,31,-1
 201 254 l 1,28,-1
EndSplineSet
EndChar

StartChar: dollar
Encoding: 36 36 7
Width: 586
GlyphClass: 1
Flags: W
LayerCount: 2
Fore
SplineSet
263 754 m 1,0,-1
 333 754 l 1,1,-1
 332 686 l 1,2,3
 451 672 451 672 526 578 c 1,4,-1
 486 530 l 1,5,6
 428 610 428 610 331 624 c 1,7,-1
 328 368 l 1,8,-1
 356 362 l 2,9,10
 527 326 527 326 527 177 c 0,11,12
 527 94 527 94 471.5 47.5 c 128,-1,13
 416 1 416 1 323 -7 c 1,14,-1
 322 -75 l 1,15,-1
 251 -75 l 1,16,-1
 252 -6 l 1,17,18
 134 8 134 8 57 102 c 1,19,-1
 97 149 l 1,20,21
 154 70 154 70 253 56 c 1,22,-1
 257 319 l 1,23,-1
 229 325 l 2,24,25
 57 362 57 362 57 506 c 0,26,27
 57 589 57 589 112.5 634.5 c 128,-1,28
 168 680 168 680 262 687 c 1,29,-1
 263 754 l 1,0,-1
327 304 m 1,30,-1
 324 56 l 1,31,32
 381 63 381 63 414.5 93.5 c 128,-1,33
 448 124 448 124 448 177 c 0,34,35
 448 279 448 279 343 301 c 2,36,-1
 327 304 l 1,30,-1
258 383 m 1,37,-1
 261 624 l 1,38,39
 203 617 203 617 169.5 587.5 c 128,-1,40
 136 558 136 558 136 506 c 0,41,42
 136 408 136 408 242 386 c 2,43,-1
 258 383 l 1,37,-1
EndSplineSet
EndChar

StartChar: percent
Encoding: 37 37 8
Width: 586
GlyphClass: 1
Flags: W
LayerCount: 2
Fore
SplineSet
158 94 m 1,0,-1
 158 179 l 1,1,-1
 451 589 l 1,2,-1
 451 504 l 1,3,-1
 158 94 l 1,0,-1
451 48 m 128,-1,5
 526 48 526 48 526 163 c 0,6,7
 526 277 526 277 451 277 c 128,-1,8
 376 277 376 277 376 163 c 0,9,4
 376 48 376 48 451 48 c 128,-1,5
451 -8 m 128,-1,11
 381 -8 381 -8 343 39 c 128,-1,12
 305 86 305 86 305 163 c 128,-1,13
 305 240 305 240 343 287 c 128,-1,14
 381 334 381 334 451 334 c 128,-1,15
 521 334 521 334 559 287 c 128,-1,16
 597 240 597 240 597 163 c 128,-1,17
 597 86 597 86 559 39 c 128,-1,10
 521 -8 521 -8 451 -8 c 128,-1,11
158 635 m 128,-1,19
 83 635 83 635 83 520 c 128,-1,20
 83 405 83 405 158 405 c 128,-1,21
 233 405 233 405 233 520 c 128,-1,18
 233 635 233 635 158 635 c 128,-1,19
158 691 m 128,-1,23
 228 691 228 691 266.5 644 c 128,-1,24
 305 597 305 597 305 520 c 128,-1,25
 305 443 305 443 266.5 396 c 128,-1,26
 228 349 228 349 158 349 c 128,-1,27
 88 349 88 349 50 396 c 128,-1,28
 12 443 12 443 12 520 c 128,-1,29
 12 597 12 597 50 644 c 128,-1,22
 88 691 88 691 158 691 c 128,-1,23
EndSplineSet
EndChar

StartChar: ampersand
Encoding: 38 38 9
Width: 586
GlyphClass: 1
Flags: W
LayerCount: 2
Fore
SplineSet
540 168 m 1,0,1
 508 88 508 88 436.5 40 c 128,-1,2
 365 -8 365 -8 279 -8 c 0,3,4
 176 -8 176 -8 116.5 56 c 128,-1,5
 57 120 57 120 57 228 c 0,6,7
 57 327 57 327 113.5 385.5 c 128,-1,8
 170 444 170 444 267 444 c 1,9,-1
 88 620 l 1,10,-1
 88 683 l 1,11,-1
 448 683 l 1,12,-1
 448 620 l 1,13,-1
 168 620 l 1,14,-1
 346 444 l 1,15,-1
 346 391 l 1,16,-1
 267 391 l 2,17,18
 204 391 204 391 170.5 346 c 128,-1,19
 137 301 137 301 137 228 c 0,20,21
 137 150 137 150 174 102.5 c 128,-1,22
 211 55 211 55 279 55 c 0,23,24
 352 55 352 55 410.5 97 c 128,-1,25
 469 139 469 139 492 208 c 1,26,-1
 540 168 l 1,0,1
EndSplineSet
EndChar

StartChar: quotesingle
Encoding: 39 39 10
Width: 586
GlyphClass: 1
Flags: W
LayerCount: 2
Fore
SplineSet
254 780 m 1,0,-1
 333 780 l 1,1,-1
 325 585 l 1,2,-1
 261 585 l 1,3,-1
 254 780 l 1,0,-1
EndSplineSet
EndChar

StartChar: parenleft
Encoding: 40 40 11
Width: 586
GlyphClass: 1
Flags: W
LayerCount: 2
Fore
SplineSet
400 755 m 1,0,-1
 429 700 l 1,1,2
 332 640 332 640 276 540.5 c 128,-1,3
 220 441 220 441 220 327 c 128,-1,4
 220 213 220 213 276 113.5 c 128,-1,5
 332 14 332 14 429 -46 c 1,6,-1
 400 -101 l 1,7,8
 282 -38 282 -38 212.5 77.5 c 128,-1,9
 143 193 143 193 143 327 c 128,-1,10
 143 461 143 461 212.5 576.5 c 128,-1,11
 282 692 282 692 400 755 c 1,0,-1
EndSplineSet
EndChar

StartChar: parenright
Encoding: 41 41 12
Width: 586
GlyphClass: 1
Flags: W
LayerCount: 2
Fore
SplineSet
142 702 m 1,0,-1
 172 756 l 1,1,2
 290 693 290 693 359.5 577.5 c 128,-1,3
 429 462 429 462 429 328 c 128,-1,4
 429 194 429 194 359.5 78.5 c 128,-1,5
 290 -37 290 -37 172 -100 c 1,6,-1
 142 -46 l 1,7,8
 240 14 240 14 295.5 113.5 c 128,-1,9
 351 213 351 213 351 328 c 128,-1,10
 351 443 351 443 295.5 542.5 c 128,-1,11
 240 642 240 642 142 702 c 1,0,-1
EndSplineSet
EndChar

StartChar: asterisk
Encoding: 42 42 13
Width: 586
GlyphClass: 1
Flags: W
LayerCount: 2
Fore
SplineSet
324 634 m 1,0,-1
 462 685 l 1,1,-1
 487 610 l 1,2,-1
 344 570 l 1,3,-1
 436 454 l 1,4,-1
 372 408 l 1,5,-1
 290 531 l 1,6,-1
 209 408 l 1,7,-1
 145 454 l 1,8,-1
 237 570 l 1,9,-1
 95 610 l 1,10,-1
 119 685 l 1,11,-1
 257 634 l 1,12,-1
 251 781 l 1,13,-1
 330 781 l 1,14,-1
 324 634 l 1,0,-1
EndSplineSet
EndChar

StartChar: plus
Encoding: 43 43 14
Width: 586
GlyphClass: 1
Flags: W
LayerCount: 2
Fore
SplineSet
74 242 m 1,0,-1
 74 304 l 1,1,-1
 254 304 l 1,2,-1
 254 493 l 1,3,-1
 333 493 l 1,4,-1
 333 304 l 1,5,-1
 513 304 l 1,6,-1
 513 242 l 1,7,-1
 333 242 l 1,8,-1
 333 54 l 1,9,-1
 254 54 l 1,10,-1
 254 242 l 1,11,-1
 74 242 l 1,0,-1
EndSplineSet
EndChar

StartChar: comma
Encoding: 44 44 15
Width: 586
GlyphClass: 1
Flags: W
LayerCount: 2
Fore
SplineSet
268 -1 m 2,0,1
 264 1 264 1 258 7 c 0,2,3
 244 21 244 21 244 42 c 128,-1,4
 244 63 244 63 258 77 c 128,-1,5
 272 91 272 91 293 91 c 128,-1,6
 314 91 314 91 328 77 c 0,7,8
 343 62 343 62 343 42 c 2,9,-1
 343 -97 l 1,10,-1
 279 -97 l 1,11,-1
 268 -1 l 2,0,1
EndSplineSet
EndChar

StartChar: hyphen
Encoding: 45 45 16
Width: 586
GlyphClass: 1
Flags: W
LayerCount: 2
Fore
SplineSet
74 242 m 1,0,-1
 74 304 l 1,1,-1
 513 304 l 1,2,-1
 513 242 l 1,3,-1
 74 242 l 1,0,-1
EndSplineSet
EndChar

StartChar: period
Encoding: 46 46 17
Width: 586
GlyphClass: 1
Flags: W
LayerCount: 2
Fore
SplineSet
343 42 m 128,-1,1
 343 22 343 22 328 7 c 128,-1,2
 313 -8 313 -8 293 -8 c 128,-1,3
 273 -8 273 -8 258 7 c 0,4,5
 244 21 244 21 244 42 c 128,-1,6
 244 63 244 63 258 77 c 128,-1,7
 272 91 272 91 293 91 c 128,-1,8
 314 91 314 91 328 77 c 0,9,0
 343 62 343 62 343 42 c 128,-1,1
EndSplineSet
EndChar

StartChar: slash
Encoding: 47 47 18
Width: 586
GlyphClass: 1
Flags: W
LayerCount: 2
Fore
SplineSet
450 691 m 1,0,-1
 529 691 l 1,1,-1
 137 -8 l 1,2,-1
 57 -8 l 1,3,-1
 450 691 l 1,0,-1
EndSplineSet
EndChar

StartChar: zero
Encoding: 48 48 19
Width: 586
GlyphClass: 1
Flags: W
LayerCount: 2
Fore
SplineSet
293 691 m 128,-1,1
 376 691 376 691 430.5 643 c 128,-1,2
 485 595 485 595 507 519 c 128,-1,3
 529 443 529 443 529 341 c 0,4,5
 529 265 529 265 516 203.5 c 128,-1,6
 503 142 503 142 476 93.5 c 128,-1,7
 449 45 449 45 402.5 18.5 c 128,-1,8
 356 -8 356 -8 293 -8 c 128,-1,9
 230 -8 230 -8 183.5 18.5 c 128,-1,10
 137 45 137 45 110 93.5 c 128,-1,11
 83 142 83 142 70 203.5 c 128,-1,12
 57 265 57 265 57 341 c 0,13,14
 57 443 57 443 79 519 c 128,-1,15
 101 595 101 595 155.5 643 c 128,-1,0
 210 691 210 691 293 691 c 128,-1,1
293 628 m 0,16,17
 245 628 245 628 213 606 c 128,-1,18
 181 584 181 584 165 541.5 c 128,-1,19
 149 499 149 499 143 452 c 128,-1,20
 137 405 137 405 137 341 c 128,-1,21
 137 277 137 277 143 230.5 c 128,-1,22
 149 184 149 184 165 141.5 c 128,-1,23
 181 99 181 99 213 77 c 128,-1,24
 245 55 245 55 293 55 c 128,-1,25
 341 55 341 55 373.5 77 c 128,-1,26
 406 99 406 99 422 141 c 128,-1,27
 438 183 438 183 444 230 c 128,-1,28
 450 277 450 277 450 341 c 0,29,30
 450 391 450 391 446.5 430.5 c 128,-1,31
 443 470 443 470 433 508.5 c 128,-1,32
 423 547 423 547 406 572 c 128,-1,33
 389 597 389 597 360.5 612.5 c 128,-1,34
 332 628 332 628 293 628 c 0,16,17
EndSplineSet
EndChar

StartChar: one
Encoding: 49 49 20
Width: 586
GlyphClass: 1
Flags: W
LayerCount: 2
Fore
SplineSet
273 62 m 1,0,-1
 273 608 l 1,1,-1
 77 478 l 1,2,-1
 77 553 l 1,3,-1
 273 683 l 1,4,-1
 353 683 l 1,5,-1
 353 62 l 1,6,-1
 527 62 l 1,7,-1
 527 0 l 1,8,-1
 353 0 l 1,9,-1
 273 0 l 1,10,-1
 77 0 l 1,11,-1
 77 62 l 1,12,-1
 273 62 l 1,0,-1
EndSplineSet
EndChar

StartChar: two
Encoding: 50 50 21
Width: 586
GlyphClass: 1
Flags: W
LayerCount: 2
Fore
SplineSet
62 580 m 1,0,1
 96 632 96 632 150.5 661.5 c 128,-1,2
 205 691 205 691 267 691 c 0,3,4
 373 691 373 691 436.5 639 c 128,-1,5
 500 587 500 587 500 492 c 0,6,7
 500 437 500 437 469 389.5 c 128,-1,8
 438 342 438 342 382 287 c 2,9,-1
 152 62 l 1,10,-1
 500 62 l 1,11,-1
 500 0 l 1,12,-1
 62 0 l 1,13,-1
 62 62 l 1,14,-1
 333 328 l 2,15,16
 421 414 421 414 421 492 c 0,17,18
 421 557 421 557 379 592.5 c 128,-1,19
 337 628 337 628 267 628 c 0,20,21
 216 628 216 628 172.5 602.5 c 128,-1,22
 129 577 129 577 103 533 c 1,23,-1
 62 580 l 1,0,1
EndSplineSet
EndChar

StartChar: three
Encoding: 51 51 22
Width: 586
GlyphClass: 1
Flags: W
LayerCount: 2
Fore
SplineSet
77 620 m 1,0,-1
 77 683 l 1,1,-1
 500 683 l 1,2,-1
 500 620 l 1,3,-1
 275 406 l 1,4,5
 389 406 389 406 459 354.5 c 128,-1,6
 529 303 529 303 529 205 c 0,7,8
 529 102 529 102 457 47 c 128,-1,9
 385 -8 385 -8 267 -8 c 0,10,11
 204 -8 204 -8 148.5 21 c 128,-1,12
 93 50 93 50 57 102 c 1,13,-1
 97 150 l 1,14,15
 124 106 124 106 169.5 80.5 c 128,-1,16
 215 55 215 55 267 55 c 0,17,18
 350 55 350 55 400 93.5 c 128,-1,19
 450 132 450 132 450 205 c 128,-1,20
 450 278 450 278 396.5 315.5 c 128,-1,21
 343 353 343 353 255 353 c 2,22,-1
 215 353 l 1,23,-1
 196 406 l 1,24,-1
 404 620 l 1,25,-1
 77 620 l 1,0,-1
EndSplineSet
EndChar

StartChar: four
Encoding: 52 52 23
Width: 586
GlyphClass: 1
Flags: W
LayerCount: 2
Fore
SplineSet
356 372 m 1,0,-1
 435 372 l 1,1,-1
 435 222 l 1,2,-1
 553 222 l 1,3,-1
 553 160 l 1,4,-1
 435 160 l 1,5,-1
 435 0 l 1,6,-1
 356 0 l 1,7,-1
 356 160 l 1,8,-1
 57 160 l 1,9,-1
 57 222 l 1,10,-1
 324 683 l 1,11,-1
 403 683 l 1,12,-1
 137 222 l 1,13,-1
 356 222 l 1,14,-1
 356 372 l 1,0,-1
EndSplineSet
EndChar

StartChar: five
Encoding: 53 53 24
Width: 586
GlyphClass: 1
Flags: W
LayerCount: 2
Fore
SplineSet
130 301 m 1,0,-1
 86 301 l 1,1,-1
 88 683 l 1,2,-1
 168 683 l 1,3,-1
 489 683 l 1,4,-1
 489 620 l 1,5,-1
 168 620 l 1,6,-1
 166 379 l 1,7,8
 216 444 216 444 314 444 c 0,9,10
 413 444 413 444 471 384.5 c 128,-1,11
 529 325 529 325 529 225 c 0,12,13
 529 115 529 115 456.5 53.5 c 128,-1,14
 384 -8 384 -8 264 -8 c 0,15,16
 204 -8 204 -8 149.5 17.5 c 128,-1,17
 95 43 95 43 57 89 c 1,18,-1
 98 137 l 1,19,20
 161 55 161 55 264 55 c 0,21,22
 349 55 349 55 399.5 100 c 128,-1,23
 450 145 450 145 450 225 c 0,24,25
 450 300 450 300 410 345.5 c 128,-1,26
 370 391 370 391 299 391 c 0,27,28
 255 391 255 391 218 366.5 c 128,-1,29
 181 342 181 342 165 301 c 1,30,-1
 130 301 l 1,0,-1
EndSplineSet
EndChar

StartChar: six
Encoding: 54 54 25
Width: 586
GlyphClass: 1
Flags: W
LayerCount: 2
Fore
SplineSet
527 613 m 1,0,-1
 487 565 l 1,1,2
 421 628 421 628 328 628 c 0,3,4
 230 628 230 628 187 553.5 c 128,-1,5
 144 479 144 479 138 348 c 1,6,7
 200 444 200 444 305 444 c 0,8,9
 418 444 418 444 485.5 382 c 128,-1,10
 553 320 553 320 553 212 c 0,11,12
 553 107 553 107 481.5 49.5 c 128,-1,13
 410 -8 410 -8 293 -8 c 128,-1,14
 176 -8 176 -8 116.5 77 c 128,-1,15
 57 162 57 162 57 301 c 0,16,17
 57 478 57 478 123 584.5 c 128,-1,18
 189 691 189 691 328 691 c 0,19,20
 443 691 443 691 527 613 c 1,0,-1
137 212 m 0,21,22
 137 140 137 140 179 97.5 c 128,-1,23
 221 55 221 55 293 55 c 0,24,25
 374 55 374 55 423.5 96.5 c 128,-1,26
 473 138 473 138 473 212 c 0,27,28
 473 290 473 290 428 335.5 c 128,-1,29
 383 381 383 381 305 381 c 128,-1,30
 227 381 227 381 182 335.5 c 128,-1,31
 137 290 137 290 137 212 c 0,21,22
EndSplineSet
EndChar

StartChar: seven
Encoding: 55 55 26
Width: 586
GlyphClass: 1
Flags: W
LayerCount: 2
Fore
SplineSet
57 620 m 1,0,-1
 57 683 l 1,1,-1
 500 683 l 1,2,-1
 500 620 l 1,3,-1
 230 0 l 1,4,-1
 151 0 l 1,5,-1
 421 620 l 1,6,-1
 57 620 l 1,0,-1
EndSplineSet
EndChar

StartChar: eight
Encoding: 56 56 27
Width: 586
GlyphClass: 1
Flags: W
LayerCount: 2
Fore
SplineSet
293 380 m 128,-1,1
 357 380 357 380 396 412.5 c 128,-1,2
 435 445 435 445 435 504 c 128,-1,3
 435 563 435 563 396 595.5 c 128,-1,4
 357 628 357 628 293 628 c 128,-1,5
 229 628 229 628 190 595.5 c 128,-1,6
 151 563 151 563 151 504 c 128,-1,7
 151 445 151 445 190 412.5 c 128,-1,0
 229 380 229 380 293 380 c 128,-1,1
163 356 m 1,8,9
 72 400 72 400 72 504 c 0,10,11
 72 593 72 593 132.5 642 c 128,-1,12
 193 691 193 691 293 691 c 128,-1,13
 393 691 393 691 454 642 c 128,-1,14
 515 593 515 593 515 504 c 0,15,16
 515 400 515 400 423 356 c 1,17,18
 529 309 529 309 529 192 c 0,19,20
 529 96 529 96 464.5 44 c 128,-1,21
 400 -8 400 -8 293 -8 c 128,-1,22
 186 -8 186 -8 121.5 44 c 128,-1,23
 57 96 57 96 57 192 c 0,24,25
 57 309 57 309 163 356 c 1,8,9
293 330 m 128,-1,27
 222 330 222 330 179.5 293.5 c 128,-1,28
 137 257 137 257 137 192 c 128,-1,29
 137 127 137 127 179.5 91 c 128,-1,30
 222 55 222 55 293 55 c 128,-1,31
 364 55 364 55 407 91 c 128,-1,32
 450 127 450 127 450 192 c 128,-1,33
 450 257 450 257 407 293.5 c 128,-1,26
 364 330 364 330 293 330 c 128,-1,27
EndSplineSet
EndChar

StartChar: nine
Encoding: 57 57 28
Width: 586
GlyphClass: 1
Flags: W
LayerCount: 2
Fore
SplineSet
94 118 m 1,0,1
 166 55 166 55 264 55 c 0,2,3
 361 55 361 55 400.5 123 c 128,-1,4
 440 191 440 191 447 317 c 1,5,6
 389 239 389 239 293 239 c 0,7,8
 185 239 185 239 121 298.5 c 128,-1,9
 57 358 57 358 57 461 c 0,10,11
 57 567 57 567 121 629 c 128,-1,12
 185 691 185 691 293 691 c 0,13,14
 409 691 409 691 469 607.5 c 128,-1,15
 529 524 529 524 529 387 c 0,16,17
 529 301 529 301 515 232 c 128,-1,18
 501 163 501 163 470.5 107.5 c 128,-1,19
 440 52 440 52 387.5 22 c 128,-1,20
 335 -8 335 -8 264 -8 c 0,21,22
 146 -8 146 -8 54 70 c 1,23,-1
 94 118 l 1,0,1
450 461 m 0,24,25
 450 537 450 537 408 582.5 c 128,-1,26
 366 628 366 628 293 628 c 128,-1,27
 220 628 220 628 178.5 582.5 c 128,-1,28
 137 537 137 537 137 461 c 0,29,30
 137 388 137 388 179 344.5 c 128,-1,31
 221 301 221 301 293 301 c 128,-1,32
 365 301 365 301 407.5 344.5 c 128,-1,33
 450 388 450 388 450 461 c 0,24,25
EndSplineSet
EndChar

StartChar: colon
Encoding: 58 58 29
Width: 586
GlyphClass: 1
Flags: W
LayerCount: 2
Fore
SplineSet
343 466 m 128,-1,1
 343 446 343 446 328 431 c 128,-1,2
 313 416 313 416 293 416 c 128,-1,3
 273 416 273 416 258 431 c 0,4,5
 244 445 244 445 244 466 c 128,-1,6
 244 487 244 487 258 501 c 128,-1,7
 272 515 272 515 293 515 c 128,-1,8
 314 515 314 515 328 501 c 0,9,0
 343 486 343 486 343 466 c 128,-1,1
343 42 m 128,-1,11
 343 22 343 22 328 7 c 128,-1,12
 313 -8 313 -8 293 -8 c 128,-1,13
 273 -8 273 -8 258 7 c 0,14,15
 244 21 244 21 244 42 c 128,-1,16
 244 63 244 63 258 77 c 128,-1,17
 272 91 272 91 293 91 c 128,-1,18
 314 91 314 91 328 77 c 0,19,10
 343 62 343 62 343 42 c 128,-1,11
EndSplineSet
EndChar

StartChar: semicolon
Encoding: 59 59 30
Width: 586
GlyphClass: 1
Flags: W
LayerCount: 2
Fore
SplineSet
343 466 m 128,-1,1
 343 446 343 446 328 431 c 128,-1,2
 313 416 313 416 293 416 c 128,-1,3
 273 416 273 416 258 431 c 0,4,5
 244 445 244 445 244 466 c 128,-1,6
 244 487 244 487 258 501 c 128,-1,7
 272 515 272 515 293 515 c 128,-1,8
 314 515 314 515 328 501 c 0,9,0
 343 486 343 486 343 466 c 128,-1,1
268 -1 m 2,10,11
 264 1 264 1 258 7 c 0,12,13
 244 21 244 21 244 42 c 128,-1,14
 244 63 244 63 258 77 c 128,-1,15
 272 91 272 91 293 91 c 128,-1,16
 314 91 314 91 328 77 c 0,17,18
 343 62 343 62 343 42 c 2,19,-1
 343 -97 l 1,20,-1
 279 -97 l 1,21,-1
 268 -1 l 2,10,11
EndSplineSet
EndChar

StartChar: less
Encoding: 60 60 31
Width: 586
GlyphClass: 1
Flags: W
LayerCount: 2
Fore
SplineSet
120 254 m 1,0,-1
 529 49 l 1,1,-1
 529 -30 l 1,2,-1
 57 222 l 1,3,-1
 57 285 l 1,4,-1
 529 537 l 1,5,-1
 529 458 l 1,6,-1
 120 254 l 1,0,-1
EndSplineSet
EndChar

StartChar: equal
Encoding: 61 61 32
Width: 586
GlyphClass: 1
Flags: W
LayerCount: 2
Fore
SplineSet
500 198 m 1,0,-1
 500 136 l 1,1,-1
 86 136 l 1,2,-1
 86 198 l 1,3,-1
 500 198 l 1,0,-1
86 309 m 1,4,-1
 86 371 l 1,5,-1
 500 371 l 1,6,-1
 500 309 l 1,7,-1
 86 309 l 1,4,-1
EndSplineSet
EndChar

StartChar: greater
Encoding: 62 62 33
Width: 586
GlyphClass: 1
Flags: W
LayerCount: 2
Fore
SplineSet
529 285 m 1,0,-1
 529 222 l 1,1,-1
 57 -30 l 1,2,-1
 57 49 l 1,3,-1
 466 254 l 1,4,-1
 57 458 l 1,5,-1
 57 537 l 1,6,-1
 529 285 l 1,0,-1
EndSplineSet
EndChar

StartChar: question
Encoding: 63 63 34
Width: 586
GlyphClass: 1
Flags: W
LayerCount: 2
Fore
SplineSet
302 42 m 128,-1,1
 302 22 302 22 287 7 c 128,-1,2
 272 -8 272 -8 252 -8 c 128,-1,3
 232 -8 232 -8 217 7 c 0,4,5
 203 21 203 21 203 42 c 128,-1,6
 203 63 203 63 217 77 c 128,-1,7
 231 91 231 91 252 91 c 128,-1,8
 273 91 273 91 287 77 c 0,9,0
 302 62 302 62 302 42 c 128,-1,1
39 580 m 1,10,11
 144 691 144 691 293 691 c 0,12,13
 399 691 399 691 464 645 c 128,-1,14
 529 599 529 599 529 510 c 0,15,16
 529 481 529 481 520.5 457 c 128,-1,17
 512 433 512 433 493 412.5 c 128,-1,18
 474 392 474 392 458.5 378.5 c 128,-1,19
 443 365 443 365 412.5 342.5 c 128,-1,20
 382 320 382 320 366 307 c 0,21,22
 292 246 292 246 292 181 c 1,23,-1
 213 181 l 1,24,25
 213 235 213 235 248 278 c 128,-1,26
 283 321 283 321 345 366 c 0,27,28
 378 390 378 390 396.5 407 c 128,-1,29
 415 424 415 424 432.5 452.5 c 128,-1,30
 450 481 450 481 450 510 c 0,31,32
 450 569 450 569 407 598.5 c 128,-1,33
 364 628 364 628 293 628 c 0,34,35
 165 628 165 628 79 533 c 1,36,-1
 39 580 l 1,10,11
EndSplineSet
EndChar

StartChar: at
Encoding: 64 64 35
Width: 586
GlyphClass: 1
Flags: W
LayerCount: 2
Fore
SplineSet
351 548 m 1,0,-1
 412 548 l 1,1,-1
 370 238 l 1,2,-1
 427 203 l 1,3,4
 433 220 433 220 438 267 c 128,-1,5
 443 314 443 314 443 348 c 0,6,7
 443 387 443 387 443 408 c 128,-1,8
 443 429 443 429 441.5 464 c 128,-1,9
 440 499 440 499 437 519 c 128,-1,10
 434 539 434 539 428.5 567 c 128,-1,11
 423 595 423 595 415.5 610.5 c 128,-1,12
 408 626 408 626 396 644.5 c 128,-1,13
 384 663 384 663 368.5 672.5 c 128,-1,14
 353 682 353 682 332.5 688.5 c 128,-1,15
 312 695 312 695 286 695 c 128,-1,16
 260 695 260 695 238.5 688.5 c 128,-1,17
 217 682 217 682 201.5 672.5 c 128,-1,18
 186 663 186 663 173.5 643.5 c 128,-1,19
 161 624 161 624 153.5 608.5 c 128,-1,20
 146 593 146 593 140.5 563.5 c 128,-1,21
 135 534 135 534 132 514.5 c 128,-1,22
 129 495 129 495 127.5 458.5 c 128,-1,23
 126 422 126 422 126 401.5 c 128,-1,24
 126 381 126 381 126 340 c 128,-1,25
 126 299 126 299 126 278.5 c 128,-1,26
 126 258 126 258 127.5 221 c 128,-1,27
 129 184 129 184 132 164.5 c 128,-1,28
 135 145 135 145 140.5 116 c 128,-1,29
 146 87 146 87 153.5 71 c 128,-1,30
 161 55 161 55 173.5 35.5 c 128,-1,31
 186 16 186 16 201.5 6.5 c 128,-1,32
 217 -3 217 -3 238.5 -9.5 c 128,-1,33
 260 -16 260 -16 286 -16 c 0,34,35
 374 -16 374 -16 443 42 c 1,36,-1
 443 -19 l 1,37,38
 374 -77 374 -77 286 -77 c 0,39,40
 230 -77 230 -77 188 -54.5 c 128,-1,41
 146 -32 146 -32 121 4.5 c 128,-1,42
 96 41 96 41 81 96.5 c 128,-1,43
 66 152 66 152 61 209.5 c 128,-1,44
 56 267 56 267 56 340 c 128,-1,45
 56 413 56 413 61 470 c 128,-1,46
 66 527 66 527 81 583 c 128,-1,47
 96 639 96 639 121 675 c 128,-1,48
 146 711 146 711 188 733.5 c 128,-1,49
 230 756 230 756 286 756 c 0,50,51
 355 756 355 756 402 724.5 c 128,-1,52
 449 693 449 693 473 633.5 c 128,-1,53
 497 574 497 574 506.5 506.5 c 128,-1,54
 516 439 516 439 516 348 c 0,55,56
 516 243 516 243 472 145 c 1,57,-1
 427 142 l 1,58,-1
 335 193 l 1,59,60
 330 173 330 173 316.5 157.5 c 128,-1,61
 303 142 303 142 287 142 c 0,62,63
 167 142 167 142 167 340 c 0,64,65
 167 388 167 388 171 421.5 c 128,-1,66
 175 455 175 455 185.5 487 c 128,-1,67
 196 519 196 519 219.5 535.5 c 128,-1,68
 243 552 243 552 278 552 c 0,69,70
 319 552 319 552 347 521 c 1,71,-1
 351 548 l 1,0,-1
335 433 m 2,72,73
 335 457 335 457 318.5 474 c 128,-1,74
 302 491 302 491 278 491 c 0,75,76
 250 491 250 491 241 450.5 c 128,-1,77
 232 410 232 410 232 340 c 0,78,79
 232 283 232 283 243 243 c 128,-1,80
 254 203 254 203 278 203 c 0,81,82
 291 203 291 203 297 209 c 128,-1,83
 303 215 303 215 308 229 c 2,84,-1
 335 433 l 2,72,73
EndSplineSet
EndChar

StartChar: A
Encoding: 65 65 36
Width: 586
GlyphClass: 1
Flags: W
LayerCount: 2
Fore
SplineSet
181 236 m 1,0,-1
 405 236 l 1,1,-1
 298 604 l 1,2,-1
 293 643 l 1,3,-1
 288 604 l 1,4,-1
 181 236 l 1,0,-1
163 174 m 1,5,-1
 113 0 l 1,6,-1
 35 0 l 1,7,-1
 254 683 l 1,8,-1
 293 683 l 1,9,-1
 333 683 l 1,10,-1
 552 0 l 1,11,-1
 473 0 l 1,12,-1
 423 174 l 1,13,-1
 163 174 l 1,5,-1
EndSplineSet
EndChar

StartChar: B
Encoding: 66 66 37
Width: 586
GlyphClass: 1
Flags: W
LayerCount: 2
Fore
SplineSet
165 332 m 1,0,-1
 165 62 l 1,1,-1
 314 62 l 2,2,3
 376 62 376 62 413 98.5 c 128,-1,4
 450 135 450 135 450 197 c 128,-1,5
 450 259 450 259 413 295.5 c 128,-1,6
 376 332 376 332 314 332 c 2,7,-1
 165 332 l 1,0,-1
86 332 m 1,8,-1
 86 363 l 1,9,-1
 86 394 l 1,10,-1
 86 620 l 1,11,-1
 86 683 l 1,12,-1
 165 683 l 1,13,-1
 314 683 l 2,14,15
 411 683 411 683 470 640 c 128,-1,16
 529 597 529 597 529 515 c 0,17,18
 529 454 529 454 496 413.5 c 128,-1,19
 463 373 463 373 405 356 c 1,20,21
 529 317 529 317 529 188 c 0,22,23
 529 99 529 99 470 49.5 c 128,-1,24
 411 0 411 0 314 0 c 2,25,-1
 165 0 l 1,26,-1
 86 0 l 1,27,-1
 86 332 l 1,8,-1
165 620 m 1,28,-1
 165 394 l 1,29,-1
 314 394 l 2,30,31
 375 394 375 394 412.5 423 c 128,-1,32
 450 452 450 452 450 507 c 128,-1,33
 450 562 450 562 412.5 591 c 128,-1,34
 375 620 375 620 314 620 c 2,35,-1
 165 620 l 1,28,-1
EndSplineSet
EndChar

StartChar: C
Encoding: 67 67 38
Width: 586
GlyphClass: 1
Flags: W
LayerCount: 2
Fore
SplineSet
509 539 m 1,0,1
 481 581 481 581 436 604.5 c 128,-1,2
 391 628 391 628 340 628 c 0,3,4
 237 628 237 628 187 549 c 128,-1,5
 137 470 137 470 137 341 c 0,6,7
 137 215 137 215 187.5 138.5 c 128,-1,8
 238 62 238 62 340 62 c 0,9,10
 447 62 447 62 509 150 c 1,11,-1
 549 102 l 1,12,13
 512 53 512 53 457 26.5 c 128,-1,14
 402 0 402 0 340 0 c 0,15,16
 204 0 204 0 130.5 93.5 c 128,-1,17
 57 187 57 187 57 341 c 0,18,19
 57 498 57 498 130 594.5 c 128,-1,20
 203 691 203 691 340 691 c 0,21,22
 408 691 408 691 458 666.5 c 128,-1,23
 508 642 508 642 549 587 c 1,24,-1
 509 539 l 1,0,1
EndSplineSet
EndChar

StartChar: D
Encoding: 68 68 39
Width: 586
GlyphClass: 1
Flags: W
LayerCount: 2
Fore
SplineSet
165 620 m 1,0,-1
 165 62 l 1,1,-1
 264 62 l 2,2,3
 366 62 366 62 414 141.5 c 128,-1,4
 462 221 462 221 462 351 c 0,5,6
 462 472 462 472 412.5 546 c 128,-1,7
 363 620 363 620 264 620 c 2,8,-1
 165 620 l 1,0,-1
86 62 m 1,9,-1
 86 620 l 1,10,-1
 86 683 l 1,11,-1
 165 683 l 1,12,-1
 264 683 l 2,13,14
 397 683 397 683 469 591.5 c 128,-1,15
 541 500 541 500 541 351 c 0,16,17
 541 193 541 193 470 96.5 c 128,-1,18
 399 0 399 0 264 0 c 2,19,-1
 165 0 l 1,20,-1
 86 0 l 1,21,-1
 86 62 l 1,9,-1
EndSplineSet
EndChar

StartChar: E
Encoding: 69 69 40
Width: 586
GlyphClass: 1
Flags: W
LayerCount: 2
Fore
SplineSet
126 0 m 1,0,-1
 86 0 l 1,1,-1
 86 683 l 1,2,-1
 126 683 l 1,3,-1
 165 683 l 1,4,-1
 527 683 l 1,5,-1
 527 620 l 1,6,-1
 165 620 l 1,7,-1
 165 373 l 1,8,-1
 469 373 l 1,9,-1
 469 310 l 1,10,-1
 165 310 l 1,11,-1
 165 62 l 1,12,-1
 557 62 l 1,13,-1
 557 0 l 1,14,-1
 165 0 l 1,15,-1
 126 0 l 1,0,-1
EndSplineSet
EndChar

StartChar: F
Encoding: 70 70 41
Width: 586
GlyphClass: 1
Flags: W
LayerCount: 2
Fore
SplineSet
165 620 m 1,0,-1
 165 373 l 1,1,-1
 469 373 l 1,2,-1
 469 310 l 1,3,-1
 165 310 l 1,4,-1
 165 0 l 1,5,-1
 86 0 l 1,6,-1
 86 683 l 1,7,-1
 126 683 l 1,8,-1
 165 683 l 1,9,-1
 527 683 l 1,10,-1
 527 620 l 1,11,-1
 165 620 l 1,0,-1
EndSplineSet
EndChar

StartChar: G
Encoding: 71 71 42
Width: 586
GlyphClass: 1
Flags: W
LayerCount: 2
Fore
SplineSet
489 540 m 1,0,1
 460 581 460 581 416 604.5 c 128,-1,2
 372 628 372 628 322 628 c 0,3,4
 137 628 137 628 137 341 c 0,5,6
 137 214 137 214 181 138 c 128,-1,7
 225 62 225 62 322 62 c 0,8,9
 387 62 387 62 450 74 c 1,10,-1
 450 310 l 1,11,-1
 293 310 l 1,12,-1
 293 373 l 1,13,-1
 529 373 l 1,14,-1
 529 341 l 1,15,-1
 529 310 l 1,16,-1
 529 94 l 1,17,-1
 529 32 l 1,18,19
 427 0 427 0 322 0 c 0,20,21
 192 0 192 0 124.5 93.5 c 128,-1,22
 57 187 57 187 57 341 c 0,23,24
 57 498 57 498 124 594.5 c 128,-1,25
 191 691 191 691 322 691 c 0,26,27
 383 691 383 691 437.5 664 c 128,-1,28
 492 637 492 637 529 588 c 1,29,-1
 489 540 l 1,0,1
EndSplineSet
EndChar

StartChar: H
Encoding: 72 72 43
Width: 586
GlyphClass: 1
Flags: W
LayerCount: 2
Fore
SplineSet
86 683 m 1,0,-1
 165 683 l 1,1,-1
 165 407 l 1,2,-1
 421 407 l 1,3,-1
 421 683 l 1,4,-1
 500 683 l 1,5,-1
 500 0 l 1,6,-1
 421 0 l 1,7,-1
 421 344 l 1,8,-1
 165 344 l 1,9,-1
 165 0 l 1,10,-1
 86 0 l 1,11,-1
 86 683 l 1,0,-1
EndSplineSet
EndChar

StartChar: I
Encoding: 73 73 44
Width: 586
GlyphClass: 1
Flags: W
LayerCount: 2
Fore
SplineSet
72 0 m 1,0,-1
 72 62 l 1,1,-1
 254 62 l 1,2,-1
 254 620 l 1,3,-1
 72 620 l 1,4,-1
 72 683 l 1,5,-1
 254 683 l 1,6,-1
 333 683 l 1,7,-1
 515 683 l 1,8,-1
 515 620 l 1,9,-1
 333 620 l 1,10,-1
 333 62 l 1,11,-1
 515 62 l 1,12,-1
 515 0 l 1,13,-1
 333 0 l 1,14,-1
 254 0 l 1,15,-1
 72 0 l 1,0,-1
EndSplineSet
EndChar

StartChar: J
Encoding: 74 74 45
Width: 586
GlyphClass: 1
Flags: W
LayerCount: 2
Fore
SplineSet
179 620 m 1,0,-1
 179 683 l 1,1,-1
 421 683 l 1,2,-1
 461 683 l 1,3,-1
 500 683 l 1,4,-1
 500 222 l 2,5,6
 500 117 500 117 442 54.5 c 128,-1,7
 384 -8 384 -8 284 -8 c 0,8,9
 159 -8 159 -8 86 94 c 1,10,-1
 126 142 l 1,11,12
 181 55 181 55 284 55 c 0,13,14
 350 55 350 55 385.5 101 c 128,-1,15
 421 147 421 147 421 222 c 2,16,-1
 421 620 l 1,17,-1
 179 620 l 1,0,-1
EndSplineSet
EndChar

StartChar: K
Encoding: 75 75 46
Width: 586
GlyphClass: 1
Flags: W
LayerCount: 2
Fore
SplineSet
453 683 m 1,0,-1
 543 683 l 1,1,-1
 244 341 l 1,2,-1
 543 0 l 1,3,-1
 453 0 l 1,4,-1
 165 341 l 1,5,-1
 165 0 l 1,6,-1
 86 0 l 1,7,-1
 86 683 l 1,8,-1
 165 683 l 1,9,-1
 165 341 l 1,10,-1
 453 683 l 1,0,-1
EndSplineSet
EndChar

StartChar: L
Encoding: 76 76 47
Width: 586
GlyphClass: 1
Flags: W
LayerCount: 2
Fore
SplineSet
86 683 m 1,0,-1
 165 683 l 1,1,-1
 165 62 l 1,2,-1
 539 62 l 1,3,-1
 539 0 l 1,4,-1
 165 0 l 1,5,-1
 126 0 l 1,6,-1
 86 0 l 1,7,-1
 86 683 l 1,0,-1
EndSplineSet
EndChar

StartChar: M
Encoding: 77 77 48
Width: 586
GlyphClass: 1
Flags: W
LayerCount: 2
Fore
SplineSet
262 171 m 1,0,-1
 157 476 l 1,1,-1
 157 0 l 1,2,-1
 86 0 l 1,3,-1
 86 683 l 1,4,-1
 157 683 l 1,5,-1
 293 266 l 1,6,-1
 430 683 l 1,7,-1
 500 683 l 1,8,-1
 500 0 l 1,9,-1
 430 0 l 1,10,-1
 430 479 l 1,11,-1
 324 171 l 1,12,-1
 262 171 l 1,0,-1
EndSplineSet
EndChar

StartChar: N
Encoding: 78 78 49
Width: 586
GlyphClass: 1
Flags: W
LayerCount: 2
Fore
SplineSet
421 683 m 1,0,-1
 500 683 l 1,1,-1
 500 0 l 1,2,-1
 484 0 l 1,3,-1
 421 0 l 1,4,-1
 165 522 l 1,5,-1
 165 0 l 1,6,-1
 86 0 l 1,7,-1
 86 683 l 1,8,-1
 165 683 l 1,9,-1
 421 135 l 1,10,-1
 421 683 l 1,0,-1
EndSplineSet
EndChar

StartChar: O
Encoding: 79 79 50
Width: 586
GlyphClass: 1
Flags: W
LayerCount: 2
Fore
SplineSet
293 628 m 0,0,1
 245 628 245 628 213 606 c 128,-1,2
 181 584 181 584 165 541.5 c 128,-1,3
 149 499 149 499 143 452 c 128,-1,4
 137 405 137 405 137 341 c 128,-1,5
 137 277 137 277 143 230.5 c 128,-1,6
 149 184 149 184 165 141.5 c 128,-1,7
 181 99 181 99 213 77 c 128,-1,8
 245 55 245 55 293 55 c 128,-1,9
 341 55 341 55 373.5 77 c 128,-1,10
 406 99 406 99 422 141 c 128,-1,11
 438 183 438 183 444 230 c 128,-1,12
 450 277 450 277 450 341 c 0,13,14
 450 391 450 391 446.5 430.5 c 128,-1,15
 443 470 443 470 433 508.5 c 128,-1,16
 423 547 423 547 406 572 c 128,-1,17
 389 597 389 597 360.5 612.5 c 128,-1,18
 332 628 332 628 293 628 c 0,0,1
293 691 m 128,-1,20
 376 691 376 691 430.5 643 c 128,-1,21
 485 595 485 595 507 519 c 128,-1,22
 529 443 529 443 529 341 c 0,23,24
 529 265 529 265 516 203.5 c 128,-1,25
 503 142 503 142 476 93.5 c 128,-1,26
 449 45 449 45 402.5 18.5 c 128,-1,27
 356 -8 356 -8 293 -8 c 128,-1,28
 230 -8 230 -8 183.5 18.5 c 128,-1,29
 137 45 137 45 110 93.5 c 128,-1,30
 83 142 83 142 70 203.5 c 128,-1,31
 57 265 57 265 57 341 c 0,32,33
 57 443 57 443 79 519 c 128,-1,34
 101 595 101 595 155.5 643 c 128,-1,19
 210 691 210 691 293 691 c 128,-1,20
EndSplineSet
EndChar

StartChar: P
Encoding: 80 80 51
Width: 586
GlyphClass: 1
Flags: W
LayerCount: 2
Fore
SplineSet
165 273 m 1,0,-1
 165 0 l 1,1,-1
 86 0 l 1,2,-1
 86 683 l 1,3,-1
 126 683 l 1,4,-1
 165 683 l 1,5,-1
 322 683 l 2,6,7
 417 683 417 683 473 627.5 c 128,-1,8
 529 572 529 572 529 478 c 128,-1,9
 529 384 529 384 473 328.5 c 128,-1,10
 417 273 417 273 322 273 c 2,11,-1
 165 273 l 1,0,-1
165 336 m 1,12,-1
 322 336 l 2,13,14
 382 336 382 336 416 375 c 128,-1,15
 450 414 450 414 450 478 c 128,-1,16
 450 542 450 542 416 581 c 128,-1,17
 382 620 382 620 322 620 c 2,18,-1
 165 620 l 1,19,-1
 165 336 l 1,12,-1
EndSplineSet
EndChar

StartChar: Q
Encoding: 81 81 52
Width: 586
GlyphClass: 1
Flags: W
LayerCount: 2
Fore
SplineSet
293 628 m 0,0,1
 245 628 245 628 213 606 c 128,-1,2
 181 584 181 584 165 541.5 c 128,-1,3
 149 499 149 499 143 452 c 128,-1,4
 137 405 137 405 137 341 c 128,-1,5
 137 277 137 277 143 230.5 c 128,-1,6
 149 184 149 184 165 141.5 c 128,-1,7
 181 99 181 99 213 77 c 128,-1,8
 245 55 245 55 293 55 c 128,-1,9
 341 55 341 55 373.5 77 c 128,-1,10
 406 99 406 99 422 141 c 128,-1,11
 438 183 438 183 444 230 c 128,-1,12
 450 277 450 277 450 341 c 0,13,14
 450 391 450 391 446.5 430.5 c 128,-1,15
 443 470 443 470 433 508.5 c 128,-1,16
 423 547 423 547 406 572 c 128,-1,17
 389 597 389 597 360.5 612.5 c 128,-1,18
 332 628 332 628 293 628 c 0,0,1
254 -5 m 1,19,20
 152 11 152 11 104.5 103.5 c 128,-1,21
 57 196 57 196 57 341 c 0,22,23
 57 443 57 443 79 519 c 128,-1,24
 101 595 101 595 155.5 643 c 128,-1,25
 210 691 210 691 293 691 c 128,-1,26
 376 691 376 691 430.5 643 c 128,-1,27
 485 595 485 595 507 519 c 128,-1,28
 529 443 529 443 529 341 c 0,29,30
 529 197 529 197 482 104 c 128,-1,31
 435 11 435 11 333 -5 c 1,32,33
 334 -54 334 -54 354.5 -89.5 c 128,-1,34
 375 -125 375 -125 412 -125 c 2,35,-1
 489 -125 l 1,36,-1
 489 -187 l 1,37,-1
 412 -187 l 2,38,39
 345 -187 345 -187 300.5 -133.5 c 128,-1,40
 256 -80 256 -80 254 -5 c 1,19,20
EndSplineSet
EndChar

StartChar: R
Encoding: 82 82 53
Width: 586
GlyphClass: 1
Flags: W
LayerCount: 2
Fore
SplineSet
300 273 m 1,0,-1
 165 273 l 1,1,-1
 165 0 l 1,2,-1
 86 0 l 1,3,-1
 86 683 l 1,4,-1
 126 683 l 1,5,-1
 165 683 l 1,6,-1
 322 683 l 2,7,8
 417 683 417 683 473 627.5 c 128,-1,9
 529 572 529 572 529 478 c 0,10,11
 529 398 529 398 488.5 345.5 c 128,-1,12
 448 293 448 293 376 278 c 1,13,-1
 529 0 l 1,14,-1
 450 0 l 1,15,-1
 300 273 l 1,0,-1
165 336 m 1,16,-1
 322 336 l 2,17,18
 382 336 382 336 416 375 c 128,-1,19
 450 414 450 414 450 478 c 128,-1,20
 450 542 450 542 416 581 c 128,-1,21
 382 620 382 620 322 620 c 2,22,-1
 165 620 l 1,23,-1
 165 336 l 1,16,-1
EndSplineSet
EndChar

StartChar: S
Encoding: 83 83 54
Width: 586
GlyphClass: 1
Flags: W
LayerCount: 2
Fore
SplineSet
299 691 m 0,0,1
 366 691 366 691 426 662 c 128,-1,2
 486 633 486 633 527 580 c 1,3,-1
 487 533 l 1,4,5
 454 578 454 578 404.5 603 c 128,-1,6
 355 628 355 628 299 628 c 0,7,8
 226 628 226 628 181.5 598 c 128,-1,9
 137 568 137 568 137 508 c 0,10,11
 137 410 137 410 242 388 c 2,12,-1
 357 364 l 2,13,14
 529 328 529 328 529 179 c 0,15,16
 529 87 529 87 462 39.5 c 128,-1,17
 395 -8 395 -8 287 -8 c 0,18,19
 220 -8 220 -8 159.5 21 c 128,-1,20
 99 50 99 50 57 102 c 1,21,-1
 98 150 l 1,22,23
 132 105 132 105 181.5 80 c 128,-1,24
 231 55 231 55 287 55 c 0,25,26
 360 55 360 55 405 86.5 c 128,-1,27
 450 118 450 118 450 179 c 0,28,29
 450 281 450 281 344 303 c 2,30,-1
 229 327 l 2,31,32
 57 363 57 363 57 508 c 0,33,34
 57 599 57 599 123.5 645 c 128,-1,35
 190 691 190 691 299 691 c 0,0,1
EndSplineSet
EndChar

StartChar: T
Encoding: 84 84 55
Width: 586
GlyphClass: 1
Flags: W
LayerCount: 2
Fore
SplineSet
59 620 m 1,0,-1
 59 683 l 1,1,-1
 527 683 l 1,2,-1
 527 620 l 1,3,-1
 333 620 l 1,4,-1
 333 0 l 1,5,-1
 254 0 l 1,6,-1
 254 620 l 1,7,-1
 59 620 l 1,0,-1
EndSplineSet
EndChar

StartChar: U
Encoding: 85 85 56
Width: 586
GlyphClass: 1
Flags: W
LayerCount: 2
Fore
SplineSet
86 683 m 1,0,-1
 165 683 l 1,1,-1
 165 207 l 2,2,3
 165 138 165 138 198.5 96.5 c 128,-1,4
 232 55 232 55 293 55 c 0,5,6
 355 55 355 55 388.5 96.5 c 128,-1,7
 422 138 422 138 422 207 c 2,8,-1
 422 683 l 1,9,-1
 500 683 l 1,10,-1
 500 207 l 2,11,12
 500 109 500 109 444.5 50.5 c 128,-1,13
 389 -8 389 -8 293 -8 c 128,-1,14
 197 -8 197 -8 141.5 50.5 c 128,-1,15
 86 109 86 109 86 207 c 2,16,-1
 86 683 l 1,0,-1
EndSplineSet
EndChar

StartChar: V
Encoding: 86 86 57
Width: 586
GlyphClass: 1
Flags: W
LayerCount: 2
Fore
SplineSet
464 683 m 1,0,-1
 543 683 l 1,1,-1
 333 0 l 1,2,-1
 317 0 l 1,3,-1
 269 0 l 1,4,-1
 254 0 l 1,5,-1
 43 683 l 1,6,-1
 122 683 l 1,7,-1
 293 84 l 1,8,-1
 464 683 l 1,0,-1
EndSplineSet
EndChar

StartChar: W
Encoding: 87 87 58
Width: 586
GlyphClass: 1
Flags: W
LayerCount: 2
Fore
SplineSet
43 683 m 1,0,-1
 114 683 l 1,1,-1
 181 256 l 1,2,-1
 188 186 l 1,3,-1
 191 210 l 1,4,-1
 218 350 l 1,5,-1
 258 560 l 1,6,-1
 272 560 l 1,7,-1
 314 560 l 1,8,-1
 329 560 l 1,9,-1
 369 350 l 1,10,-1
 396 210 l 1,11,-1
 398 191 l 1,12,-1
 405 256 l 1,13,-1
 472 683 l 1,14,-1
 543 683 l 1,15,-1
 476 256 l 1,16,-1
 436 0 l 1,17,-1
 422 0 l 1,18,-1
 379 0 l 1,19,-1
 365 0 l 1,20,-1
 325 210 l 1,21,-1
 298 350 l 1,22,-1
 293 390 l 1,23,-1
 288 350 l 1,24,-1
 262 210 l 1,25,-1
 221 0 l 1,26,-1
 207 0 l 1,27,-1
 165 0 l 1,28,-1
 150 0 l 1,29,-1
 110 256 l 1,30,-1
 43 683 l 1,0,-1
EndSplineSet
EndChar

StartChar: X
Encoding: 88 88 59
Width: 586
GlyphClass: 1
Flags: W
LayerCount: 2
Fore
SplineSet
464 683 m 1,0,-1
 553 683 l 1,1,-1
 333 341 l 1,2,-1
 553 0 l 1,3,-1
 464 0 l 1,4,-1
 293 277 l 1,5,-1
 122 0 l 1,6,-1
 34 0 l 1,7,-1
 254 341 l 1,8,-1
 34 683 l 1,9,-1
 122 683 l 1,10,-1
 293 405 l 1,11,-1
 464 683 l 1,0,-1
EndSplineSet
EndChar

StartChar: Y
Encoding: 89 89 60
Width: 586
GlyphClass: 1
Flags: W
LayerCount: 2
Fore
SplineSet
464 683 m 1,0,-1
 543 683 l 1,1,-1
 333 307 l 1,2,-1
 333 0 l 1,3,-1
 254 0 l 1,4,-1
 254 307 l 1,5,-1
 43 683 l 1,6,-1
 122 683 l 1,7,-1
 293 353 l 1,8,-1
 464 683 l 1,0,-1
EndSplineSet
EndChar

StartChar: Z
Encoding: 90 90 61
Width: 586
GlyphClass: 1
Flags: W
LayerCount: 2
Fore
SplineSet
86 620 m 1,0,-1
 86 683 l 1,1,-1
 500 683 l 1,2,-1
 500 620 l 1,3,-1
 165 62 l 1,4,-1
 500 62 l 1,5,-1
 500 0 l 1,6,-1
 86 0 l 1,7,-1
 86 62 l 1,8,-1
 421 620 l 1,9,-1
 86 620 l 1,0,-1
EndSplineSet
EndChar

StartChar: bracketleft
Encoding: 91 91 62
Width: 586
GlyphClass: 1
Flags: W
LayerCount: 2
Fore
SplineSet
220 694 m 1,0,-1
 220 -40 l 1,1,-1
 485 -40 l 1,2,-1
 485 -101 l 1,3,-1
 220 -101 l 1,4,-1
 143 -101 l 1,5,-1
 143 755 l 1,6,-1
 220 755 l 1,7,-1
 485 755 l 1,8,-1
 485 694 l 1,9,-1
 220 694 l 1,0,-1
EndSplineSet
EndChar

StartChar: backslash
Encoding: 92 92 63
Width: 586
GlyphClass: 1
Flags: W
LayerCount: 2
Fore
SplineSet
57 691 m 1,0,-1
 137 691 l 1,1,-1
 529 -8 l 1,2,-1
 450 -8 l 1,3,-1
 57 691 l 1,0,-1
EndSplineSet
EndChar

StartChar: bracketright
Encoding: 93 93 64
Width: 586
GlyphClass: 1
Flags: W
LayerCount: 2
Fore
SplineSet
351 694 m 1,0,-1
 86 694 l 1,1,-1
 86 755 l 1,2,-1
 351 755 l 1,3,-1
 428 755 l 1,4,-1
 428 -101 l 1,5,-1
 351 -101 l 1,6,-1
 86 -101 l 1,7,-1
 86 -40 l 1,8,-1
 351 -40 l 1,9,-1
 351 694 l 1,0,-1
EndSplineSet
EndChar

StartChar: asciicircum
Encoding: 94 94 65
Width: 586
GlyphClass: 1
Flags: W
LayerCount: 2
Fore
SplineSet
57 609 m 1,0,-1
 255 756 l 1,1,-1
 323 756 l 1,2,-1
 521 609 l 1,3,-1
 464 585 l 1,4,-1
 289 705 l 1,5,-1
 114 585 l 1,6,-1
 57 609 l 1,0,-1
EndSplineSet
EndChar

StartChar: underscore
Encoding: 95 95 66
Width: 586
GlyphClass: 1
Flags: W
LayerCount: 2
Fore
SplineSet
86 0 m 1,0,-1
 500 0 l 1,1,-1
 500 -62 l 1,2,-1
 86 -62 l 1,3,-1
 86 0 l 1,0,-1
EndSplineSet
EndChar

StartChar: grave
Encoding: 96 96 67
Width: 586
GlyphClass: 1
Flags: W
LayerCount: 2
Fore
SplineSet
0 -218 m 1,0,-1
 0 -219 l 1,1,-1
 586 -219 l 1,2,-1
 586 -218 l 1,3,-1
 0 -218 l 1,0,-1
0 781 m 1,4,-1
 0 780 l 1,5,-1
 254 780 l 1,6,-1
 333 780 l 1,7,-1
 365 585 l 1,8,-1
 301 585 l 1,9,-1
 254 780 l 1,10,-1
 333 780 l 1,11,-1
 586 780 l 1,12,-1
 586 781 l 1,13,-1
 0 781 l 1,4,-1
EndSplineSet
EndChar

StartChar: a
Encoding: 97 97 68
Width: 586
GlyphClass: 1
Flags: W
LayerCount: 2
Fore
SplineSet
98 437 m 1,0,1
 141 479 141 479 185 497 c 128,-1,2
 229 515 229 515 289 515 c 0,3,4
 385 515 385 515 442.5 466.5 c 128,-1,5
 500 418 500 418 500 330 c 2,6,-1
 500 0 l 1,7,-1
 437 0 l 1,8,-1
 427 76 l 1,9,10
 349 -8 349 -8 228 -8 c 0,11,12
 150 -8 150 -8 103.5 33 c 128,-1,13
 57 74 57 74 57 146 c 0,14,15
 57 217 57 217 108.5 253.5 c 128,-1,16
 160 290 160 290 243 290 c 2,17,-1
 421 290 l 1,18,-1
 421 330 l 2,19,20
 421 387 421 387 385 420 c 128,-1,21
 349 453 349 453 289 453 c 0,22,23
 201 453 201 453 138 390 c 1,24,-1
 98 437 l 1,0,1
421 237 m 1,25,-1
 243 237 l 2,26,27
 195 237 195 237 166 213 c 128,-1,28
 137 189 137 189 137 146 c 128,-1,29
 137 103 137 103 166 79 c 128,-1,30
 195 55 195 55 243 55 c 0,31,32
 346 55 346 55 421 123 c 1,33,-1
 421 237 l 1,25,-1
EndSplineSet
EndChar

StartChar: b
Encoding: 98 98 69
Width: 586
GlyphClass: 1
Flags: W
LayerCount: 2
Fore
SplineSet
63 691 m 1,0,-1
 142 691 l 1,1,-1
 142 434 l 1,2,3
 205 515 205 515 308 515 c 0,4,5
 414 515 414 515 471.5 443.5 c 128,-1,6
 529 372 529 372 529 254 c 128,-1,7
 529 136 529 136 471.5 64 c 128,-1,8
 414 -8 414 -8 308 -8 c 0,9,10
 255 -8 255 -8 209 18 c 128,-1,11
 163 44 163 44 136 88 c 1,12,-1
 126 0 l 1,13,-1
 63 0 l 1,14,-1
 63 691 l 1,0,-1
142 155 m 1,15,16
 161 109 161 109 202 82 c 128,-1,17
 243 55 243 55 293 55 c 0,18,19
 370 55 370 55 410 110 c 128,-1,20
 450 165 450 165 450 254 c 128,-1,21
 450 343 450 343 410 398 c 128,-1,22
 370 453 370 453 293 453 c 0,23,24
 247 453 247 453 206.5 430 c 128,-1,25
 166 407 166 407 142 367 c 1,26,-1
 142 155 l 1,15,16
EndSplineSet
EndChar

StartChar: c
Encoding: 99 99 70
Width: 586
GlyphClass: 1
Flags: W
LayerCount: 2
Fore
SplineSet
529 413 m 1,0,-1
 489 366 l 1,1,2
 415 453 415 453 302 453 c 0,3,4
 223 453 223 453 180 398.5 c 128,-1,5
 137 344 137 344 137 254 c 128,-1,6
 137 164 137 164 180 109.5 c 128,-1,7
 223 55 223 55 302 55 c 0,8,9
 416 55 416 55 489 142 c 1,10,-1
 529 94 l 1,11,12
 438 -8 438 -8 302 -8 c 0,13,14
 188 -8 188 -8 122.5 63.5 c 128,-1,15
 57 135 57 135 57 254 c 128,-1,16
 57 373 57 373 122.5 444 c 128,-1,17
 188 515 188 515 302 515 c 0,18,19
 374 515 374 515 427.5 491 c 128,-1,20
 481 467 481 467 529 413 c 1,0,-1
EndSplineSet
EndChar

StartChar: d
Encoding: 100 100 71
Width: 586
GlyphClass: 1
Flags: W
LayerCount: 2
Fore
SplineSet
444 691 m 1,0,-1
 523 691 l 1,1,-1
 523 0 l 1,2,-1
 460 0 l 1,3,-1
 450 88 l 1,4,5
 423 44 423 44 377.5 18 c 128,-1,6
 332 -8 332 -8 279 -8 c 0,7,8
 173 -8 173 -8 115 64 c 128,-1,9
 57 136 57 136 57 254 c 128,-1,10
 57 372 57 372 115 443.5 c 128,-1,11
 173 515 173 515 279 515 c 0,12,13
 381 515 381 515 444 434 c 1,14,-1
 444 691 l 1,0,-1
444 367 m 1,15,16
 420 407 420 407 379.5 430 c 128,-1,17
 339 453 339 453 293 453 c 0,18,19
 216 453 216 453 176.5 398.5 c 128,-1,20
 137 344 137 344 137 254 c 128,-1,21
 137 164 137 164 176.5 109.5 c 128,-1,22
 216 55 216 55 293 55 c 0,23,24
 343 55 343 55 384 82 c 128,-1,25
 425 109 425 109 444 155 c 1,26,-1
 444 367 l 1,15,16
EndSplineSet
EndChar

StartChar: e
Encoding: 101 101 72
Width: 586
GlyphClass: 1
Flags: W
LayerCount: 2
Fore
SplineSet
137 237 m 1,0,1
 137 154 137 154 181.5 104.5 c 128,-1,2
 226 55 226 55 305 55 c 0,3,4
 408 55 408 55 484 123 c 1,5,-1
 524 75 l 1,6,7
 430 -8 430 -8 305 -8 c 0,8,9
 189 -8 189 -8 123 66.5 c 128,-1,10
 57 141 57 141 57 264 c 0,11,12
 57 379 57 379 124 447 c 128,-1,13
 191 515 191 515 305 515 c 0,14,15
 402 515 402 515 465.5 449 c 128,-1,16
 529 383 529 383 529 280 c 0,17,18
 529 237 529 237 519 237 c 2,19,-1
 450 237 l 1,20,-1
 137 237 l 1,0,1
  Spiro
    137 237 v
    148.125 162.375 o
    181.5 104.5 o
    234.625 67.375 o
    305 55 o
    401.25 72 o
    484 123 v
    524 75 v
    422.25 12.75 o
    305 -8 o
    201.5 10.625 o
    123 66.5 o
    73.5 153.125 o
    57 264 o
    73.75 367.25 o
    124 447 o
    202.75 498 o
    305 515 o
    393.625 498.5 o
    465.5 449 o
    513.125 373.75 o
    529 280 o
    526.5 247.75 o
    519 237 [
    450 237 v
    0 0 z
  EndSpiro
137 290 m 1,21,-1
 450 290 l 1,22,23
 450 364 450 364 411.5 408.5 c 128,-1,24
 373 453 373 453 305 453 c 0,25,26
 228 453 228 453 182.5 409 c 128,-1,27
 137 365 137 365 137 290 c 1,21,-1
  Spiro
    137 290 v
    450 290 v
    440.375 356.625 o
    411.5 408.5 o
    365.625 441.875 o
    305 453 o
    235.875 442 o
    182.5 409 o
    148.375 357.25 o
    0 0 z
  EndSpiro
EndSplineSet
EndChar

StartChar: f
Encoding: 102 102 73
Width: 586
GlyphClass: 1
Flags: W
LayerCount: 2
Fore
SplineSet
309 507 m 1,0,-1
 529 507 l 1,1,-1
 529 445 l 1,2,-1
 309 445 l 1,3,-1
 309 0 l 1,4,-1
 230 0 l 1,5,-1
 230 445 l 1,6,-1
 86 445 l 1,7,-1
 86 507 l 1,8,-1
 230 507 l 1,9,-1
 230 580 l 2,10,11
 230 645 230 645 275.5 679.5 c 128,-1,12
 321 714 321 714 396 714 c 2,13,-1
 529 714 l 1,14,-1
 529 652 l 1,15,-1
 396 652 l 2,16,17
 361 652 361 652 335 631.5 c 128,-1,18
 309 611 309 611 309 580 c 2,19,-1
 309 507 l 1,0,-1
EndSplineSet
EndChar

StartChar: g
Encoding: 103 103 74
Width: 586
GlyphClass: 1
Flags: W
LayerCount: 2
Fore
SplineSet
0 -218 m 1,0,-1
 0 -219 l 1,1,-1
 586 -219 l 1,2,-1
 586 -218 l 1,3,-1
 0 -218 l 1,0,-1
0 781 m 1,4,-1
 0 780 l 1,5,-1
 586 780 l 1,6,-1
 586 781 l 1,7,-1
 0 781 l 1,4,-1
189 0 m 1,8,9
 128 -23 128 -23 128 -56 c 0,10,11
 128 -91 128 -91 163.5 -108 c 128,-1,12
 199 -125 199 -125 249 -125 c 0,13,14
 337 -125 337 -125 392.5 -104 c 128,-1,15
 448 -83 448 -83 448 -39 c 0,16,17
 448 0 448 0 371 0 c 2,18,-1
 189 0 l 1,8,9
109 17 m 1,19,20
 49 46 49 46 49 108 c 0,21,22
 49 175 49 175 148 200 c 1,23,24
 49 243 49 243 49 347 c 0,25,26
 49 427 49 427 104 471 c 128,-1,27
 159 515 159 515 249 515 c 0,28,29
 292 515 292 515 330 504 c 1,30,-1
 330 507 l 1,31,-1
 535 507 l 1,32,-1
 535 445 l 1,33,-1
 420 445 l 1,34,35
 450 404 450 404 450 347 c 0,36,37
 450 267 450 267 395 223.5 c 128,-1,38
 340 180 340 180 249 180 c 0,39,40
 128 180 128 180 128 121 c 128,-1,41
 128 62 128 62 189 62 c 2,42,-1
 371 62 l 2,43,44
 434 62 434 62 480.5 36 c 128,-1,45
 527 10 527 10 527 -39 c 128,-1,46
 527 -88 527 -88 481.5 -123 c 128,-1,47
 436 -158 436 -158 375.5 -172.5 c 128,-1,48
 315 -187 315 -187 249 -187 c 0,49,50
 49 -187 49 -187 49 -56 c 0,51,52
 49 -5 49 -5 109 17 c 1,19,20
249 453 m 0,53,54
 195 453 195 453 161.5 425 c 128,-1,55
 128 397 128 397 128 347 c 128,-1,56
 128 297 128 297 161 269.5 c 128,-1,57
 194 242 194 242 249 242 c 128,-1,58
 304 242 304 242 337.5 269.5 c 128,-1,59
 371 297 371 297 371 347 c 128,-1,60
 371 397 371 397 337.5 425 c 128,-1,61
 304 453 304 453 249 453 c 0,53,54
EndSplineSet
EndChar

StartChar: h
Encoding: 104 104 75
Width: 586
GlyphClass: 1
Flags: W
LayerCount: 2
Fore
SplineSet
86 683 m 1,0,-1
 165 683 l 1,1,-1
 165 414 l 1,2,3
 220 515 220 515 347 515 c 0,4,5
 429 515 429 515 476 465 c 128,-1,6
 523 415 523 415 523 330 c 2,7,-1
 523 0 l 1,8,-1
 444 0 l 1,9,-1
 444 330 l 2,10,11
 444 386 444 386 414.5 419.5 c 128,-1,12
 385 453 385 453 333 453 c 0,13,14
 209 453 209 453 165 337 c 1,15,-1
 165 0 l 1,16,-1
 86 0 l 1,17,-1
 86 683 l 1,0,-1
EndSplineSet
EndChar

StartChar: i
Encoding: 105 105 76
Width: 586
GlyphClass: 1
Flags: W
LayerCount: 2
Fore
SplineSet
343 654 m 128,-1,1
 343 634 343 634 328 619 c 128,-1,2
 313 604 313 604 293 604 c 128,-1,3
 273 604 273 604 258 619 c 0,4,5
 244 633 244 633 244 654 c 128,-1,6
 244 675 244 675 258 689 c 128,-1,7
 272 703 272 703 293 703 c 128,-1,8
 314 703 314 703 328 689 c 0,9,0
 343 674 343 674 343 654 c 128,-1,1
57 445 m 1,10,-1
 57 507 l 1,11,-1
 254 507 l 1,12,-1
 293 507 l 1,13,-1
 333 507 l 1,14,-1
 333 62 l 1,15,-1
 500 62 l 1,16,-1
 500 0 l 1,17,-1
 333 0 l 1,18,-1
 293 0 l 1,19,-1
 254 0 l 1,20,-1
 254 445 l 1,21,-1
 57 445 l 1,10,-1
EndSplineSet
EndChar

StartChar: j
Encoding: 106 106 77
Width: 586
GlyphClass: 1
Flags: W
LayerCount: 2
Fore
SplineSet
489 654 m 128,-1,1
 489 633 489 633 475 619 c 0,2,3
 460 604 460 604 440 604 c 0,4,5
 419 604 419 604 404 619 c 0,6,7
 390 633 390 633 390 654 c 128,-1,8
 390 675 390 675 404 689 c 128,-1,9
 418 703 418 703 440 703 c 0,10,11
 461 703 461 703 475 689 c 128,-1,0
 489 675 489 675 489 654 c 128,-1,1
400 445 m 1,12,-1
 196 445 l 1,13,-1
 196 507 l 1,14,-1
 400 507 l 1,15,-1
 440 507 l 1,16,-1
 479 507 l 1,17,-1
 479 -10 l 2,18,19
 479 -91 479 -91 433 -139 c 128,-1,20
 387 -187 387 -187 308 -187 c 2,21,-1
 74 -187 l 1,22,-1
 74 -125 l 1,23,-1
 308 -125 l 2,24,25
 349 -125 349 -125 374.5 -91 c 128,-1,26
 400 -57 400 -57 400 -10 c 2,27,-1
 400 445 l 1,12,-1
EndSplineSet
EndChar

StartChar: k
Encoding: 107 107 78
Width: 586
GlyphClass: 1
Flags: W
LayerCount: 2
Fore
SplineSet
429 507 m 1,0,-1
 543 507 l 1,1,-1
 244 254 l 1,2,-1
 543 0 l 1,3,-1
 429 0 l 1,4,-1
 165 254 l 1,5,-1
 165 0 l 1,6,-1
 86 0 l 1,7,-1
 86 683 l 1,8,-1
 165 683 l 1,9,-1
 165 254 l 1,10,-1
 429 507 l 1,0,-1
EndSplineSet
EndChar

StartChar: l
Encoding: 108 108 79
Width: 586
GlyphClass: 1
Flags: W
LayerCount: 2
Fore
SplineSet
207 62 m 1,0,-1
 207 628 l 1,1,-1
 30 628 l 1,2,-1
 30 691 l 1,3,-1
 207 691 l 1,4,-1
 286 691 l 1,5,-1
 286 62 l 1,6,-1
 500 62 l 1,7,-1
 500 0 l 1,8,-1
 286 0 l 1,9,-1
 207 0 l 1,10,-1
 207 62 l 1,0,-1
EndSplineSet
EndChar

StartChar: m
Encoding: 109 109 80
Width: 586
GlyphClass: 1
Flags: W
LayerCount: 2
Fore
SplineSet
57 507 m 1,0,-1
 128 507 l 1,1,-1
 128 434 l 1,2,3
 132 439 132 439 143.5 455 c 128,-1,4
 155 471 155 471 161 478.5 c 128,-1,5
 167 486 167 486 177.5 496 c 128,-1,6
 188 506 188 506 198.5 510.5 c 128,-1,7
 209 515 209 515 221 515 c 0,8,9
 261 515 261 515 285.5 492 c 128,-1,10
 310 469 310 469 310 432 c 0,11,12
 310 430 310 430 309.5 426 c 128,-1,13
 309 422 309 422 309 420 c 1,14,15
 317 458 317 458 350.5 486.5 c 128,-1,16
 384 515 384 515 421 515 c 0,17,18
 472 515 472 515 500.5 481.5 c 128,-1,19
 529 448 529 448 529 393 c 2,20,-1
 529 0 l 1,21,-1
 458 0 l 1,22,-1
 458 379 l 2,23,24
 458 409 458 409 444 431 c 128,-1,25
 430 453 430 453 406 453 c 0,26,27
 375 453 375 453 352 434 c 128,-1,28
 329 415 329 415 329 386 c 2,29,-1
 329 0 l 1,30,-1
 258 0 l 1,31,-1
 258 379 l 2,32,33
 258 409 258 409 244 431 c 128,-1,34
 230 453 230 453 206 453 c 0,35,36
 174 453 174 453 151 434 c 128,-1,37
 128 415 128 415 128 386 c 2,38,-1
 128 0 l 1,39,-1
 57 0 l 1,40,-1
 57 507 l 1,0,-1
EndSplineSet
EndChar

StartChar: n
Encoding: 110 110 81
Width: 586
GlyphClass: 1
Flags: W
LayerCount: 2
Fore
SplineSet
86 507 m 1,0,-1
 165 507 l 1,1,-1
 165 418 l 1,2,3
 196 463 196 463 244 489 c 128,-1,4
 292 515 292 515 347 515 c 0,5,6
 429 515 429 515 476 465 c 128,-1,7
 523 415 523 415 523 330 c 2,8,-1
 523 0 l 1,9,-1
 444 0 l 1,10,-1
 444 330 l 2,11,12
 444 386 444 386 414.5 419.5 c 128,-1,13
 385 453 385 453 333 453 c 128,-1,14
 281 453 281 453 236 426.5 c 128,-1,15
 191 400 191 400 165 355 c 1,16,-1
 165 0 l 1,17,-1
 86 0 l 1,18,-1
 86 507 l 1,0,-1
EndSplineSet
EndChar

StartChar: o
Encoding: 111 111 82
Width: 586
GlyphClass: 1
Flags: W
LayerCount: 2
Fore
SplineSet
293 453 m 128,-1,1
 217 453 217 453 177 399.5 c 128,-1,2
 137 346 137 346 137 258 c 0,3,4
 137 167 137 167 176.5 111 c 128,-1,5
 216 55 216 55 293 55 c 128,-1,6
 370 55 370 55 410 111 c 128,-1,7
 450 167 450 167 450 258 c 0,8,9
 450 346 450 346 409.5 399.5 c 128,-1,0
 369 453 369 453 293 453 c 128,-1,1
293 515 m 128,-1,11
 403 515 403 515 466 445 c 128,-1,12
 529 375 529 375 529 258 c 0,13,14
 529 138 529 138 466.5 65 c 128,-1,15
 404 -8 404 -8 293 -8 c 128,-1,16
 182 -8 182 -8 119.5 65 c 128,-1,17
 57 138 57 138 57 258 c 0,18,19
 57 375 57 375 120 445 c 128,-1,10
 183 515 183 515 293 515 c 128,-1,11
EndSplineSet
EndChar

StartChar: p
Encoding: 112 112 83
Width: 586
GlyphClass: 1
Flags: W
LayerCount: 2
Fore
SplineSet
63 -184 m 1,0,-1
 63 507 l 1,1,-1
 126 507 l 1,2,-1
 136 419 l 1,3,4
 163 463 163 463 209 489 c 128,-1,5
 255 515 255 515 308 515 c 0,6,7
 414 515 414 515 471.5 443 c 128,-1,8
 529 371 529 371 529 253 c 128,-1,9
 529 135 529 135 471.5 63.5 c 128,-1,10
 414 -8 414 -8 308 -8 c 0,11,12
 205 -8 205 -8 142 73 c 1,13,-1
 142 -184 l 1,14,-1
 63 -184 l 1,0,-1
142 352 m 1,15,-1
 142 140 l 1,16,17
 166 100 166 100 206.5 77 c 128,-1,18
 247 54 247 54 293 54 c 0,19,20
 370 54 370 54 410 109 c 128,-1,21
 450 164 450 164 450 253 c 128,-1,22
 450 342 450 342 410 397 c 128,-1,23
 370 452 370 452 293 452 c 0,24,25
 243 452 243 452 202 425 c 128,-1,26
 161 398 161 398 142 352 c 1,15,-1
EndSplineSet
EndChar

StartChar: q
Encoding: 113 113 84
Width: 586
GlyphClass: 1
Flags: W
LayerCount: 2
Fore
SplineSet
529 -184 m 1,0,-1
 450 -184 l 1,1,-1
 450 73 l 1,2,3
 387 -8 387 -8 284 -8 c 0,4,5
 178 -8 178 -8 120.5 63.5 c 128,-1,6
 63 135 63 135 63 253 c 128,-1,7
 63 371 63 371 120.5 443 c 128,-1,8
 178 515 178 515 284 515 c 0,9,10
 337 515 337 515 383 489 c 128,-1,11
 429 463 429 463 456 419 c 1,12,-1
 466 507 l 1,13,-1
 529 507 l 1,14,-1
 529 -184 l 1,0,-1
450 352 m 1,15,16
 431 398 431 398 390 425 c 128,-1,17
 349 452 349 452 299 452 c 0,18,19
 222 452 222 452 182 397 c 128,-1,20
 142 342 142 342 142 253 c 128,-1,21
 142 164 142 164 182 109 c 128,-1,22
 222 54 222 54 299 54 c 0,23,24
 345 54 345 54 385.5 77 c 128,-1,25
 426 100 426 100 450 140 c 1,26,-1
 450 352 l 1,15,16
EndSplineSet
EndChar

StartChar: r
Encoding: 114 114 85
Width: 586
GlyphClass: 1
Flags: W
LayerCount: 2
Fore
SplineSet
86 0 m 1,0,-1
 86 62 l 1,1,-1
 224 62 l 1,2,-1
 224 445 l 1,3,-1
 86 445 l 1,4,-1
 86 507 l 1,5,-1
 224 507 l 1,6,-1
 264 507 l 1,7,-1
 304 507 l 1,8,-1
 304 409 l 1,9,10
 367 463 367 463 415.5 489 c 128,-1,11
 464 515 464 515 529 515 c 1,12,-1
 529 453 l 1,13,14
 484 453 484 453 442 436 c 128,-1,15
 400 419 400 419 376.5 401.5 c 128,-1,16
 353 384 353 384 304 343 c 1,17,-1
 304 62 l 1,18,-1
 529 62 l 1,19,-1
 529 0 l 1,20,-1
 304 0 l 1,21,-1
 224 0 l 1,22,-1
 86 0 l 1,0,-1
EndSplineSet
EndChar

StartChar: s
Encoding: 115 115 86
Width: 586
GlyphClass: 1
Flags: W
LayerCount: 2
Fore
SplineSet
305 515 m 0,0,1
 435 515 435 515 540 438 c 1,2,-1
 500 391 l 1,3,4
 412 453 412 453 305 453 c 0,5,6
 137 453 137 453 137 374 c 0,7,8
 137 357 137 357 144 344.5 c 128,-1,9
 151 332 151 332 159.5 325 c 128,-1,10
 168 318 168 318 187 311.5 c 128,-1,11
 206 305 206 305 217.5 302.5 c 128,-1,12
 229 300 229 300 255 296 c 2,13,-1
 342 281 l 2,14,15
 384 273 384 273 408 268 c 128,-1,16
 432 263 432 263 464 251.5 c 128,-1,17
 496 240 496 240 512.5 226.5 c 128,-1,18
 529 213 529 213 541 190 c 128,-1,19
 553 167 553 167 553 137 c 0,20,21
 553 92 553 92 532 62 c 128,-1,22
 511 32 511 32 470.5 17.5 c 128,-1,23
 430 3 430 3 386 -2.5 c 128,-1,24
 342 -8 342 -8 281 -8 c 0,25,26
 148 -8 148 -8 44 77 c 1,27,-1
 84 125 l 1,28,29
 171 55 171 55 281 55 c 0,30,31
 323 55 323 55 350.5 57 c 128,-1,32
 378 59 378 59 409.5 66.5 c 128,-1,33
 441 74 441 74 457 91.5 c 128,-1,34
 473 109 473 109 473 137 c 0,35,36
 473 151 473 151 469.5 162 c 128,-1,37
 466 173 466 173 457 181 c 128,-1,38
 448 189 448 189 440.5 194 c 128,-1,39
 433 199 433 199 417 203 c 128,-1,40
 401 207 401 207 392 209 c 128,-1,41
 383 211 383 211 361.5 214 c 128,-1,42
 340 217 340 217 331 219 c 2,43,-1
 245 234 l 2,44,45
 201 242 201 242 171.5 250.5 c 128,-1,46
 142 259 142 259 113.5 274.5 c 128,-1,47
 85 290 85 290 71 315 c 128,-1,48
 57 340 57 340 57 374 c 0,49,50
 57 416 57 416 76 444.5 c 128,-1,51
 95 473 95 473 131.5 488 c 128,-1,52
 168 503 168 503 209 509 c 128,-1,53
 250 515 250 515 305 515 c 0,0,1
EndSplineSet
EndChar

StartChar: t
Encoding: 116 116 87
Width: 586
GlyphClass: 1
Flags: W
LayerCount: 2
Fore
SplineSet
230 632 m 1,0,-1
 309 683 l 1,1,-1
 309 507 l 1,2,-1
 529 507 l 1,3,-1
 529 445 l 1,4,-1
 309 445 l 1,5,-1
 309 123 l 2,6,7
 309 91 309 91 331 73 c 128,-1,8
 353 55 353 55 388 55 c 2,9,-1
 529 55 l 1,10,-1
 529 -8 l 1,11,-1
 388 -8 l 2,12,13
 317 -8 317 -8 273.5 26 c 128,-1,14
 230 60 230 60 230 123 c 2,15,-1
 230 445 l 1,16,-1
 57 445 l 1,17,-1
 57 507 l 1,18,-1
 230 507 l 1,19,-1
 230 632 l 1,0,-1
EndSplineSet
EndChar

StartChar: u
Encoding: 117 117 88
Width: 586
GlyphClass: 1
Flags: W
LayerCount: 2
Fore
SplineSet
63 507 m 1,0,-1
 142 507 l 1,1,-1
 142 178 l 2,2,3
 142 122 142 122 172 88.5 c 128,-1,4
 202 55 202 55 254 55 c 0,5,6
 309 55 309 55 354 85 c 128,-1,7
 399 115 399 115 421 165 c 1,8,-1
 421 507 l 1,9,-1
 500 507 l 1,10,-1
 500 0 l 1,11,-1
 421 0 l 1,12,-1
 421 89 l 1,13,14
 391 44 391 44 342.5 18 c 128,-1,15
 294 -8 294 -8 239 -8 c 0,16,17
 157 -8 157 -8 110 42.5 c 128,-1,18
 63 93 63 93 63 178 c 2,19,-1
 63 507 l 1,0,-1
EndSplineSet
EndChar

StartChar: v
Encoding: 118 118 89
Width: 586
GlyphClass: 1
Flags: W
LayerCount: 2
Fore
SplineSet
464 507 m 1,0,-1
 543 507 l 1,1,-1
 333 0 l 1,2,-1
 317 0 l 1,3,-1
 269 0 l 1,4,-1
 254 0 l 1,5,-1
 43 507 l 1,6,-1
 122 507 l 1,7,-1
 293 62 l 1,8,-1
 464 507 l 1,0,-1
EndSplineSet
EndChar

StartChar: w
Encoding: 119 119 90
Width: 586
GlyphClass: 1
Flags: W
LayerCount: 2
Fore
SplineSet
43 507 m 1,0,-1
 114 507 l 1,1,-1
 188 102 l 1,2,-1
 258 410 l 1,3,-1
 272 410 l 1,4,-1
 314 410 l 1,5,-1
 329 410 l 1,6,-1
 398 105 l 1,7,-1
 472 507 l 1,8,-1
 543 507 l 1,9,-1
 436 0 l 1,10,-1
 422 0 l 1,11,-1
 379 0 l 1,12,-1
 365 0 l 1,13,-1
 293 317 l 1,14,-1
 221 0 l 1,15,-1
 207 0 l 1,16,-1
 165 0 l 1,17,-1
 150 0 l 1,18,-1
 43 507 l 1,0,-1
EndSplineSet
EndChar

StartChar: x
Encoding: 120 120 91
Width: 586
GlyphClass: 1
Flags: W
LayerCount: 2
Fore
SplineSet
467 507 m 1,0,-1
 553 507 l 1,1,-1
 333 254 l 1,2,-1
 553 0 l 1,3,-1
 467 0 l 1,4,-1
 293 207 l 1,5,-1
 119 0 l 1,6,-1
 34 0 l 1,7,-1
 254 254 l 1,8,-1
 34 507 l 1,9,-1
 119 507 l 1,10,-1
 293 301 l 1,11,-1
 467 507 l 1,0,-1
EndSplineSet
EndChar

StartChar: y
Encoding: 121 121 92
Width: 586
GlyphClass: 1
Flags: W
LayerCount: 2
Fore
SplineSet
473 507 m 1,0,-1
 553 507 l 1,1,-1
 415 190 l 1,2,-1
 333 0 l 1,3,-1
 252 -187 l 1,4,-1
 172 -187 l 1,5,-1
 254 0 l 1,6,-1
 171 190 l 1,7,-1
 34 507 l 1,8,-1
 113 507 l 1,9,-1
 250 190 l 1,10,-1
 293 68 l 1,11,-1
 336 190 l 1,12,-1
 473 507 l 1,0,-1
EndSplineSet
EndChar

StartChar: z
Encoding: 122 122 93
Width: 586
GlyphClass: 1
Flags: W
LayerCount: 2
Fore
SplineSet
86 445 m 1,0,-1
 86 507 l 1,1,-1
 500 507 l 1,2,-1
 500 445 l 1,3,-1
 165 62 l 1,4,-1
 500 62 l 1,5,-1
 500 0 l 1,6,-1
 86 0 l 1,7,-1
 86 62 l 1,8,-1
 421 445 l 1,9,-1
 86 445 l 1,0,-1
EndSplineSet
EndChar

StartChar: braceleft
Encoding: 123 123 94
Width: 586
GlyphClass: 1
Flags: W
LayerCount: 2
Fore
SplineSet
381 755 m 2,0,-1
 515 755 l 1,1,-1
 515 694 l 1,2,-1
 381 694 l 2,3,4
 352 694 352 694 335.5 677 c 128,-1,5
 319 660 319 660 319 632 c 2,6,-1
 319 419 l 2,7,8
 319 356 319 356 265 327 c 1,9,10
 319 298 319 298 319 235 c 2,11,-1
 319 22 l 2,12,13
 319 -6 319 -6 335.5 -23 c 128,-1,14
 352 -40 352 -40 381 -40 c 2,15,-1
 515 -40 l 1,16,-1
 515 -101 l 1,17,-1
 381 -101 l 2,18,19
 318 -101 318 -101 280 -68.5 c 128,-1,20
 242 -36 242 -36 242 22 c 2,21,-1
 242 235 l 2,22,23
 242 264 242 264 225 280.5 c 128,-1,24
 208 297 208 297 180 297 c 2,25,-1
 56 297 l 1,26,-1
 56 357 l 1,27,-1
 180 357 l 2,28,29
 208 357 208 357 225 373.5 c 128,-1,30
 242 390 242 390 242 419 c 2,31,-1
 242 632 l 2,32,33
 242 690 242 690 280 722.5 c 128,-1,34
 318 755 318 755 381 755 c 2,0,-1
EndSplineSet
EndChar

StartChar: bar
Encoding: 124 124 95
Width: 586
GlyphClass: 1
Flags: W
LayerCount: 2
Fore
SplineSet
254 780 m 1,0,-1
 333 780 l 1,1,-1
 333 -97 l 1,2,-1
 254 -97 l 1,3,-1
 254 780 l 1,0,-1
EndSplineSet
EndChar

StartChar: braceright
Encoding: 125 125 96
Width: 586
GlyphClass: 1
Flags: W
LayerCount: 2
Fore
SplineSet
191 695 m 2,0,-1
 56 695 l 1,1,-1
 56 756 l 1,2,-1
 191 756 l 2,3,4
 254 756 254 756 292 723.5 c 128,-1,5
 330 691 330 691 330 633 c 2,6,-1
 330 420 l 2,7,8
 330 392 330 392 347 375 c 128,-1,9
 364 358 364 358 392 358 c 2,10,-1
 516 358 l 1,11,-1
 516 297 l 1,12,-1
 392 297 l 2,13,14
 364 297 364 297 347 280.5 c 128,-1,15
 330 264 330 264 330 235 c 2,16,-1
 330 22 l 2,17,18
 330 -36 330 -36 292 -68 c 128,-1,19
 254 -100 254 -100 191 -100 c 2,20,-1
 56 -100 l 1,21,-1
 56 -40 l 1,22,-1
 191 -40 l 2,23,24
 220 -40 220 -40 236.5 -23 c 128,-1,25
 253 -6 253 -6 253 22 c 2,26,-1
 253 235 l 2,27,28
 253 299 253 299 307 328 c 1,29,30
 253 357 253 357 253 420 c 2,31,-1
 253 633 l 2,32,33
 253 662 253 662 236.5 678.5 c 128,-1,34
 220 695 220 695 191 695 c 2,0,-1
EndSplineSet
EndChar

StartChar: asciitilde
Encoding: 126 126 97
Width: 586
GlyphClass: 1
Flags: W
LayerCount: 2
Fore
SplineSet
529 254 m 1,0,1
 522 210 522 210 488.5 181 c 128,-1,2
 455 152 455 152 411 152 c 0,3,4
 324 152 324 152 278 226 c 1,5,6
 248 293 248 293 175 293 c 0,7,8
 138 293 138 293 112.5 267 c 128,-1,9
 87 241 87 241 87 204 c 2,10,-1
 87 199 l 1,11,-1
 57 254 l 1,12,13
 64 298 64 298 97.5 326.5 c 128,-1,14
 131 355 131 355 175 355 c 0,15,16
 262 355 262 355 308 281 c 1,17,18
 337 215 337 215 411 215 c 0,19,20
 448 215 448 215 473.5 241 c 128,-1,21
 499 267 499 267 499 304 c 2,22,-1
 499 309 l 1,23,-1
 529 254 l 1,0,1
EndSplineSet
EndChar
